<svg width="30" height="30" viewBox="0 0 30 30" fill="none" xmlns="http://www.w3.org/2000/svg">
<path d="M15.625 14.9375C16.2292 14.2708 16.6927 13.5104 17.0156 12.6562C17.3385 11.8021 17.5 10.9167 17.5 10C17.5 9.08333 17.3385 8.19792 17.0156 7.34375C16.6927 6.48958 16.2292 5.72917 15.625 5.0625C16.875 5.22917 17.9167 5.78125 18.75 6.71875C19.5833 7.65625 20 8.75 20 10C20 11.25 19.5833 12.3438 18.75 13.2812C17.9167 14.2188 16.875 14.7708 15.625 14.9375ZM22.5 25V21.25C22.5 20.5 22.3333 19.7865 22 19.1094C21.6667 18.4323 21.2292 17.8333 20.6875 17.3125C21.75 17.6875 22.7344 18.1719 23.6406 18.7656C24.5469 19.3594 25 20.1875 25 21.25V25H22.5ZM25 16.25V13.75H22.5V11.25H25V8.75H27.5V11.25H30V13.75H27.5V16.25H25ZM10 15C8.625 15 7.44792 14.5104 6.46875 13.5312C5.48958 12.5521 5 11.375 5 10C5 8.625 5.48958 7.44792 6.46875 6.46875C7.44792 5.48958 8.625 5 10 5C11.375 5 12.5521 5.48958 13.5312 6.46875C14.5104 7.44792 15 8.625 15 10C15 11.375 14.5104 12.5521 13.5312 13.5312C12.5521 14.5104 11.375 15 10 15ZM0 25V21.5C0 20.7917 0.182292 20.1406 0.546875 19.5469C0.911458 18.9531 1.39583 18.5 2 18.1875C3.29167 17.5417 4.60417 17.0573 5.9375 16.7344C7.27083 16.4115 8.625 16.25 10 16.25C11.375 16.25 12.7292 16.4115 14.0625 16.7344C15.3958 17.0573 16.7083 17.5417 18 18.1875C18.6042 18.5 19.0885 18.9531 19.4531 19.5469C19.8177 20.1406 20 20.7917 20 21.5V25H0ZM10 12.5C10.6875 12.5 11.276 12.2552 11.7656 11.7656C12.2552 11.276 12.5 10.6875 12.5 10C12.5 9.3125 12.2552 8.72396 11.7656 8.23438C11.276 7.74479 10.6875 7.5 10 7.5C9.3125 7.5 8.72396 7.74479 8.23438 8.23438C7.74479 8.72396 7.5 9.3125 7.5 10C7.5 10.6875 7.74479 11.276 8.23438 11.7656C8.72396 12.2552 9.3125 12.5 10 12.5ZM2.5 22.5H17.5V21.5C17.5 21.2708 17.4427 21.0625 17.3281 20.875C17.2135 20.6875 17.0625 20.5417 16.875 20.4375C15.75 19.875 14.6146 19.4531 13.4688 19.1719C12.3229 18.8906 11.1667 18.75 10 18.75C8.83333 18.75 7.67708 18.8906 6.53125 19.1719C5.38542 19.4531 4.25 19.875 3.125 20.4375C2.9375 20.5417 2.78646 20.6875 2.67188 20.875C2.55729 21.0625 2.5 21.2708 2.5 21.5V22.5Z" fill="#1681EC"/>
</svg>
