<svg width="33" height="33" viewBox="0 0 33 33" fill="none" xmlns="http://www.w3.org/2000/svg">
<path d="M33 16.5C33 16.5 26.8125 5.15625 16.5 5.15625C6.1875 5.15625 0 16.5 0 16.5C0 16.5 6.1875 27.8438 16.5 27.8438C26.8125 27.8438 33 16.5 33 16.5ZM2.41931 16.5C3.41505 14.9832 4.56218 13.5714 5.84306 12.2863C8.4975 9.62775 12.1275 7.21875 16.5 7.21875C20.8725 7.21875 24.5004 9.62775 27.159 12.2863C28.4399 13.5714 29.587 14.9832 30.5828 16.5C30.4645 16.6788 30.3304 16.8767 30.1806 17.094C29.4896 18.084 28.4687 19.404 27.159 20.7137C24.5004 23.3722 20.8704 25.7812 16.5 25.7812C12.1296 25.7812 8.49956 23.3722 5.841 20.7137C4.56012 19.4286 3.41505 18.0168 2.41931 16.5Z" fill="#CED4DB"/>
<path d="M16.5 11.3438C15.1325 11.3438 13.821 11.887 12.854 12.854C11.887 13.821 11.3438 15.1325 11.3438 16.5C11.3438 17.8675 11.887 19.179 12.854 20.146C13.821 21.113 15.1325 21.6562 16.5 21.6562C17.8675 21.6562 19.179 21.113 20.146 20.146C21.113 19.179 21.6562 17.8675 21.6562 16.5C21.6562 15.1325 21.113 13.821 20.146 12.854C19.179 11.887 17.8675 11.3438 16.5 11.3438ZM9.28125 16.5C9.28125 14.5855 10.0418 12.7494 11.3956 11.3956C12.7494 10.0418 14.5855 9.28125 16.5 9.28125C18.4145 9.28125 20.2506 10.0418 21.6044 11.3956C22.9582 12.7494 23.7187 14.5855 23.7188 16.5C23.7188 18.4145 22.9582 20.2506 21.6044 21.6044C20.2506 22.9582 18.4145 23.7188 16.5 23.7188C14.5855 23.7188 12.7494 22.9582 11.3956 21.6044C10.0418 20.2506 9.28125 18.4145 9.28125 16.5Z" fill="#CED4DB"/>
</svg>
