<svg width="41" height="39" viewBox="0 0 41 39" fill="none" xmlns="http://www.w3.org/2000/svg">
<path d="M11.7365 27.625C9.41716 27.625 7.44011 26.8328 5.80537 25.2484C4.17064 23.6641 3.35327 21.7479 3.35327 19.5C3.35327 17.2521 4.17064 15.3359 5.80537 13.7516C7.44011 12.1672 9.41716 11.375 11.7365 11.375C13.1337 11.375 14.3982 11.6729 15.5299 12.2687C16.6617 12.8646 17.6327 13.65 18.4431 14.625H31.8563C33.2535 14.625 34.4412 15.099 35.4192 16.0469C36.3973 16.9948 36.8863 18.1458 36.8863 19.5C36.8863 20.8542 36.3973 22.0052 35.4192 22.9531C34.4412 23.901 33.2535 24.375 31.8563 24.375H18.4431C17.6327 25.35 16.6617 26.1354 15.5299 26.7312C14.3982 27.3271 13.1337 27.625 11.7365 27.625ZM19.9521 21.125H31.8563C32.3314 21.125 32.7296 20.9693 33.0509 20.6578C33.3723 20.3464 33.533 19.9604 33.533 19.5C33.533 19.0396 33.3723 18.6536 33.0509 18.3422C32.7296 18.0307 32.3314 17.875 31.8563 17.875H19.9521C20.008 18.1187 20.0499 18.3896 20.0779 18.6875C20.1058 18.9854 20.1198 19.2563 20.1198 19.5C20.1198 19.7437 20.1058 20.0146 20.0779 20.3125C20.0499 20.6104 20.008 20.8813 19.9521 21.125ZM11.7365 24.375C13.1337 24.375 14.3214 23.901 15.2994 22.9531C16.2775 22.0052 16.7665 20.8542 16.7665 19.5C16.7665 18.1458 16.2775 16.9948 15.2994 16.0469C14.3214 15.099 13.1337 14.625 11.7365 14.625C10.3393 14.625 9.15169 15.099 8.17364 16.0469C7.1956 16.9948 6.70657 18.1458 6.70657 19.5C6.70657 20.8542 7.1956 22.0052 8.17364 22.9531C9.15169 23.901 10.3393 24.375 11.7365 24.375Z" fill="#137FEC"/>
</svg>
