<svg width="24" height="24" viewBox="0 0 24 24" fill="none" xmlns="http://www.w3.org/2000/svg">
<g clip-path="url(#clip0_20_99)">
<path fill-rule="evenodd" clip-rule="evenodd" d="M1.50012 17.2498C1.50012 17.4487 1.57914 17.6394 1.71979 17.7801C1.86044 17.9207 2.05121 17.9998 2.25012 17.9998H19.9396L15.2191 22.7188C15.0783 22.8596 14.9992 23.0506 14.9992 23.2498C14.9992 23.4489 15.0783 23.6399 15.2191 23.7808C15.36 23.9216 15.551 24.0007 15.7501 24.0007C15.9493 24.0007 16.1403 23.9216 16.2811 23.7808L22.2811 17.7808C22.351 17.7111 22.4064 17.6283 22.4442 17.5372C22.482 17.4461 22.5015 17.3484 22.5015 17.2498C22.5015 17.1511 22.482 17.0534 22.4442 16.9623C22.4064 16.8712 22.351 16.7884 22.2811 16.7188L16.2811 10.7188C16.1403 10.5779 15.9493 10.4988 15.7501 10.4988C15.551 10.4988 15.36 10.5779 15.2191 10.7188C15.0783 10.8596 14.9992 11.0506 14.9992 11.2498C14.9992 11.4489 15.0783 11.6399 15.2191 11.7808L19.9396 16.4998H2.25012C2.05121 16.4998 1.86044 16.5788 1.71979 16.7194C1.57914 16.8601 1.50012 17.0508 1.50012 17.2498ZM22.5001 6.74976C22.5001 6.94867 22.4211 7.13944 22.2805 7.28009C22.1398 7.42074 21.949 7.49976 21.7501 7.49976H4.06062L8.78112 12.2188C8.85085 12.2885 8.90617 12.3713 8.94391 12.4624C8.98164 12.5535 9.00107 12.6511 9.00107 12.7498C9.00107 12.8484 8.98164 12.946 8.94391 13.0371C8.90617 13.1282 8.85085 13.211 8.78112 13.2808C8.71139 13.3505 8.6286 13.4058 8.5375 13.4435C8.44639 13.4813 8.34874 13.5007 8.25012 13.5007C8.1515 13.5007 8.05385 13.4813 7.96274 13.4435C7.87164 13.4058 7.78885 13.3505 7.71912 13.2808L1.71912 7.28076C1.64928 7.21109 1.59386 7.12833 1.55605 7.03721C1.51824 6.94609 1.49878 6.84841 1.49878 6.74976C1.49878 6.65111 1.51824 6.55342 1.55605 6.46231C1.59386 6.37119 1.64928 6.28843 1.71912 6.21876L7.71912 0.218757C7.85995 0.0779273 8.05096 -0.00119019 8.25012 -0.00119019C8.44928 -0.00119019 8.64029 0.0779273 8.78112 0.218757C8.92195 0.359587 9.00107 0.550594 9.00107 0.749757C9.00107 0.948921 8.92195 1.13993 8.78112 1.28076L4.06062 5.99976H21.7501C21.949 5.99976 22.1398 6.07878 22.2805 6.21943C22.4211 6.36008 22.5001 6.55085 22.5001 6.74976Z" fill="#1681EC"/>
</g>
<defs>
<clipPath id="clip0_20_99">
<rect width="24" height="24" fill="white"/>
</clipPath>
</defs>
</svg>
