<svg width="30" height="30" viewBox="0 0 30 30" fill="none" xmlns="http://www.w3.org/2000/svg">
<path d="M26.6667 4.16663H3.33333C2.44928 4.16663 1.60143 4.51782 0.976311 5.14294C0.35119 5.76806 0 6.6159 0 7.49996L0 22.5C0 23.384 0.35119 24.2319 0.976311 24.857C1.60143 25.4821 2.44928 25.8333 3.33333 25.8333H26.6667C27.5507 25.8333 28.3986 25.4821 29.0237 24.857C29.6488 24.2319 30 23.384 30 22.5V7.49996C30 6.6159 29.6488 5.76806 29.0237 5.14294C28.3986 4.51782 27.5507 4.16663 26.6667 4.16663Z" fill="#C1272D"/>
<path d="M12.5391 18.4709L13.4791 15.5784L11.0183 13.7909H14.0591L15 10.895L15.9408 13.79H18.9816L16.5208 15.5775L17.4608 18.47L15 16.6825L12.5391 18.4709ZM15.525 16.3017L16.2883 16.8559L15.9966 15.9584L15.525 16.3017ZM14.0033 15.9584L13.7116 16.8559L14.475 16.3017L14.0033 15.9584ZM14.2041 15.3417L15 15.92L15.7958 15.3417L15.4916 14.4067H14.5066L14.2041 15.3417ZM12.9166 14.4067L13.6791 14.9609L13.8591 14.4067H12.9166ZM16.1408 14.4067L16.3208 14.9609L17.0833 14.4067H16.1408ZM15.2916 13.79L15 12.8917L14.7083 13.7909L15.2916 13.79Z" fill="#006233"/>
</svg>
