<svg width="31" height="30" viewBox="0 0 31 30" fill="none" xmlns="http://www.w3.org/2000/svg">
<g clip-path="url(#clip0_56_4)">
<path d="M15.8482 14.9375C16.461 14.2708 16.9312 13.5104 17.2587 12.6562C17.5862 11.8021 17.75 10.9167 17.75 10C17.75 9.08333 17.5862 8.19792 17.2587 7.34375C16.9312 6.48958 16.461 5.72917 15.8482 5.0625C17.1161 5.22917 18.1726 5.78125 19.0179 6.71875C19.8631 7.65625 20.2857 8.75 20.2857 10C20.2857 11.25 19.8631 12.3438 19.0179 13.2812C18.1726 14.2188 17.1161 14.7708 15.8482 14.9375ZM22.8214 25V21.25C22.8214 20.5 22.6524 19.7865 22.3143 19.1094C21.9762 18.4323 21.5324 17.8333 20.983 17.3125C22.0607 17.6875 23.0592 18.1719 23.9783 18.7656C24.8975 19.3594 25.3571 20.1875 25.3571 21.25V25H22.8214ZM25.3571 16.25V13.75H22.8214V11.25H25.3571V8.75H27.8929V11.25H30.4286V13.75H27.8929V16.25H25.3571ZM10.1429 15C8.74821 15 7.55432 14.5104 6.56116 13.5312C5.56801 12.5521 5.07143 11.375 5.07143 10C5.07143 8.625 5.56801 7.44792 6.56116 6.46875C7.55432 5.48958 8.74821 5 10.1429 5C11.5375 5 12.7314 5.48958 13.7246 6.46875C14.7177 7.44792 15.2143 8.625 15.2143 10C15.2143 11.375 14.7177 12.5521 13.7246 13.5312C12.7314 14.5104 11.5375 15 10.1429 15ZM0 25V21.5C0 20.7917 0.184896 20.1406 0.554688 19.5469C0.924479 18.9531 1.41577 18.5 2.02857 18.1875C3.33869 17.5417 4.66994 17.0573 6.02232 16.7344C7.3747 16.4115 8.74821 16.25 10.1429 16.25C11.5375 16.25 12.911 16.4115 14.2634 16.7344C15.6158 17.0573 16.947 17.5417 18.2571 18.1875C18.8699 18.5 19.3612 18.9531 19.731 19.5469C20.1008 20.1406 20.2857 20.7917 20.2857 21.5V25H0ZM10.1429 12.5C10.8402 12.5 11.4371 12.2552 11.9337 11.7656C12.4303 11.276 12.6786 10.6875 12.6786 10C12.6786 9.3125 12.4303 8.72396 11.9337 8.23438C11.4371 7.74479 10.8402 7.5 10.1429 7.5C9.44554 7.5 8.84859 7.74479 8.35201 8.23438C7.85543 8.72396 7.60714 9.3125 7.60714 10C7.60714 10.6875 7.85543 11.276 8.35201 11.7656C8.84859 12.2552 9.44554 12.5 10.1429 12.5ZM2.53571 22.5H17.75V21.5C17.75 21.2708 17.6919 21.0625 17.5757 20.875C17.4594 20.6875 17.3062 20.5417 17.1161 20.4375C15.975 19.875 14.8234 19.4531 13.6612 19.1719C12.499 18.8906 11.3262 18.75 10.1429 18.75C8.95952 18.75 7.78676 18.8906 6.62455 19.1719C5.46235 19.4531 4.31071 19.875 3.16964 20.4375C2.97946 20.5417 2.82626 20.6875 2.71004 20.875C2.59382 21.0625 2.53571 21.2708 2.53571 21.5V22.5Z" fill="#454E5D"/>
</g>
<defs>
<clipPath id="clip0_56_4">
<rect width="30.4286" height="30" fill="white"/>
</clipPath>
</defs>
</svg>
