<svg width="25" height="28" viewBox="0 0 25 28" fill="none" xmlns="http://www.w3.org/2000/svg">
<path d="M12.0099 17.8889C13.2252 17.8889 14.2581 17.4635 15.1088 16.6128C15.9595 15.7622 16.3849 14.7292 16.3849 13.5139C16.3849 12.2986 15.9595 11.2656 15.1088 10.4149C14.2581 9.56424 13.2252 9.13889 12.0099 9.13889C10.7946 9.13889 9.76161 9.56424 8.91092 10.4149C8.06022 11.2656 7.63487 12.2986 7.63487 13.5139C7.63487 14.7292 8.06022 15.7622 8.91092 16.6128C9.76161 17.4635 10.7946 17.8889 12.0099 17.8889ZM12.0099 16.1389C11.2807 16.1389 10.6609 15.8837 10.1505 15.3733C9.64008 14.8628 9.38487 14.2431 9.38487 13.5139C9.38487 12.7847 9.64008 12.1649 10.1505 11.6545C10.6609 11.1441 11.2807 10.8889 12.0099 10.8889C12.739 10.8889 13.3588 11.1441 13.8692 11.6545C14.3797 12.1649 14.6349 12.7847 14.6349 13.5139C14.6349 14.2431 14.3797 14.8628 13.8692 15.3733C13.3588 15.8837 12.739 16.1389 12.0099 16.1389ZM12.0099 20.8056C9.64413 20.8056 7.48904 20.1453 5.5446 18.8247C3.60015 17.5041 2.19043 15.7338 1.31543 13.5139C2.19043 11.294 3.60015 9.52373 5.5446 8.20313C7.48904 6.88252 9.64413 6.22222 12.0099 6.22222C14.3756 6.22222 16.5307 6.88252 18.4752 8.20313C20.4196 9.52373 21.8293 11.294 22.7043 13.5139C21.8293 15.7338 20.4196 17.5041 18.4752 18.8247C16.5307 20.1453 14.3756 20.8056 12.0099 20.8056ZM12.0099 18.8611C13.8409 18.8611 15.522 18.3791 17.0533 17.4149C18.5845 16.4508 19.7552 15.1505 20.5654 13.5139C19.7552 11.8773 18.5845 10.577 17.0533 9.61285C15.522 8.64873 13.8409 8.16667 12.0099 8.16667C10.1789 8.16667 8.49772 8.64873 6.96647 9.61285C5.43522 10.577 4.2645 11.8773 3.45432 13.5139C4.2645 15.1505 5.43522 16.4508 6.96647 17.4149C8.49772 18.3791 10.1789 18.8611 12.0099 18.8611Z" fill="white" fill-opacity="0.8"/>
</svg>
