<svg width="25" height="28" viewBox="0 0 25 28" fill="none" xmlns="http://www.w3.org/2000/svg">
<path d="M9.0931 19.8333C8.55838 19.8333 8.10062 19.6429 7.71984 19.2622C7.33905 18.8814 7.14865 18.4236 7.14865 17.8889V6.22223C7.14865 5.68751 7.33905 5.22975 7.71984 4.84896C8.10062 4.46818 8.55838 4.27778 9.0931 4.27778H17.8431C18.3778 4.27778 18.8356 4.46818 19.2164 4.84896C19.5972 5.22975 19.7875 5.68751 19.7875 6.22223V17.8889C19.7875 18.4236 19.5972 18.8814 19.2164 19.2622C18.8356 19.6429 18.3778 19.8333 17.8431 19.8333H9.0931ZM9.0931 17.8889H17.8431V6.22223H9.0931V17.8889ZM5.20421 23.7222C4.66949 23.7222 4.21173 23.5318 3.83095 23.151C3.45016 22.7703 3.25977 22.3125 3.25977 21.7778V8.16667H5.20421V21.7778H15.8987V23.7222H5.20421Z" fill="#0B2A4A"/>
</svg>
