<svg width="60" height="60" viewBox="0 0 60 60" fill="none" xmlns="http://www.w3.org/2000/svg">
<g opacity="0.58" clip-path="url(#clip0_17_125)">
<path d="M0 14.9539C0 12.9709 0.787783 11.0691 2.19004 9.66689C3.59231 8.26469 5.49418 7.47694 7.47728 7.47694H52.341C54.3241 7.47694 56.2259 8.26469 57.6282 9.66689C59.0305 11.0691 59.8182 12.9709 59.8182 14.9539V44.8617C59.8182 46.8447 59.0305 48.7465 57.6282 50.1487C56.2259 51.5509 54.3241 52.3387 52.341 52.3387H7.47728C5.49418 52.3387 3.59231 51.5509 2.19004 50.1487C0.787783 48.7465 0 46.8447 0 44.8617V14.9539ZM7.47728 11.2154C6.48573 11.2154 5.53479 11.6093 4.83366 12.3104C4.13253 13.0115 3.73864 13.9624 3.73864 14.9539V18.6924H56.0796V14.9539C56.0796 13.9624 55.6857 13.0115 54.9846 12.3104C54.2834 11.6093 53.3325 11.2154 52.341 11.2154H7.47728ZM56.0796 26.1693H3.73864V44.8617C3.73864 45.8532 4.13253 46.8041 4.83366 47.5052C5.53479 48.2063 6.48573 48.6002 7.47728 48.6002H52.341C53.3325 48.6002 54.2834 48.2063 54.9846 47.5052C55.6857 46.8041 56.0796 45.8532 56.0796 44.8617V26.1693Z" fill="#297E8D"/>
<path d="M7.47729 37.3848C7.47729 36.3933 7.87119 35.4424 8.57232 34.7413C9.27345 34.0402 10.2244 33.6463 11.2159 33.6463H14.9546C15.9461 33.6463 16.8971 34.0402 17.5982 34.7413C18.2993 35.4424 18.6932 36.3933 18.6932 37.3848V41.1232C18.6932 42.1147 18.2993 43.0656 17.5982 43.7667C16.8971 44.4678 15.9461 44.8617 14.9546 44.8617H11.2159C10.2244 44.8617 9.27345 44.4678 8.57232 43.7667C7.87119 43.0656 7.47729 42.1147 7.47729 41.1232V37.3848Z" fill="#297E8D"/>
</g>
<defs>
<clipPath id="clip0_17_125">
<rect width="59.8182" height="59.8156" fill="white"/>
</clipPath>
</defs>
</svg>
