<svg width="12" height="12" viewBox="0 0 12 12" fill="none" xmlns="http://www.w3.org/2000/svg">
<g clip-path="url(#clip0_166_110)">
<path d="M2.58271e-08 3.75C-0.000101801 4.61798 0.300897 5.45912 0.851666 6.12997C1.40243 6.80082 2.16886 7.25984 3.02025 7.42875C3.06929 6.8915 3.20716 6.36611 3.42825 5.874C2.77125 5.652 2.349 5.148 2.25 4.4325H1.875V4.113H2.2245V3.7875C2.224 3.7525 2.225 3.71875 2.2275 3.68625H1.875V3.366H2.25825C2.427 2.43 3.15975 1.875 4.26075 1.875C4.49775 1.875 4.70325 1.89825 4.875 1.93875V2.4885C4.67436 2.44415 4.4692 2.42351 4.26375 2.427C3.5745 2.427 3.11025 2.7765 2.96325 3.366H4.401V3.68625H2.916C2.914 3.72125 2.91325 3.758 2.91375 3.7965V4.113H4.401V4.43325H2.9475C3.036 4.88475 3.2985 5.20575 3.70125 5.355C4.09615 4.70097 4.63925 4.14891 5.28673 3.74336C5.93421 3.33781 6.66795 3.09011 7.42875 3.02025C7.24481 2.10938 6.72936 1.2992 5.98225 0.746636C5.23513 0.194071 4.30952 -0.0615454 3.38472 0.0293008C2.45992 0.120147 1.60175 0.55099 0.976434 1.23837C0.351122 1.92576 0.00317776 2.82075 2.58271e-08 3.75ZM12 7.875C12 8.96902 11.5654 10.0182 10.7918 10.7918C10.0182 11.5654 8.96902 12 7.875 12C6.78098 12 5.73177 11.5654 4.95818 10.7918C4.1846 10.0182 3.75 8.96902 3.75 7.875C3.75 6.78098 4.1846 5.73177 4.95818 4.95819C5.73177 4.1846 6.78098 3.75 7.875 3.75C8.96902 3.75 10.0182 4.1846 10.7918 4.95819C11.5654 5.73177 12 6.78098 12 7.875ZM6.1875 8.8665C6.23925 9.49275 6.747 9.98025 7.6605 10.038V10.5H8.0655V10.035C9.00975 9.9705 9.5625 9.48 9.5625 8.7675C9.5625 8.11875 9.14025 7.785 8.385 7.6125L8.0655 7.5375V6.2805C8.4705 6.3255 8.7285 6.54075 8.79 6.83925H9.501C9.4485 6.23625 8.91675 5.7645 8.0655 5.71275V5.25H7.6605V5.72175C6.8535 5.799 6.3045 6.27075 6.3045 6.93825C6.3045 7.5285 6.7125 7.90425 7.392 8.058L7.6605 8.12175V9.45675C7.245 9.39675 6.9705 9.17475 6.90825 8.8665H6.1875ZM7.6575 7.44525C7.2585 7.35525 7.0425 7.17225 7.0425 6.89625C7.0425 6.58875 7.27575 6.357 7.6605 6.2895V7.4445H7.65675L7.6575 7.44525ZM8.124 8.22825C8.60775 8.337 8.83125 8.51325 8.83125 8.82525C8.83125 9.18075 8.55375 9.42525 8.06625 9.47025V8.21475L8.124 8.22825Z" fill="#C5CFDA"/>
</g>
<defs>
<clipPath id="clip0_166_110">
<rect width="12" height="12" fill="white"/>
</clipPath>
</defs>
</svg>
