<svg width="25" height="28" viewBox="0 0 25 28" fill="none" xmlns="http://www.w3.org/2000/svg">
<path d="M6.1766 21.5347C4.49141 21.0972 3.09789 20.1898 1.99604 18.8125C0.894188 17.4352 0.343262 15.831 0.343262 14C0.343262 12.169 0.894188 10.5648 1.99604 9.18749C3.09789 7.81018 4.49141 6.90277 6.1766 6.46527V8.50694C5.02613 8.89583 4.09037 9.59259 3.3693 10.5972C2.64824 11.6018 2.28771 12.7361 2.28771 14C2.28771 15.2639 2.64824 16.3981 3.3693 17.4028C4.09037 18.4074 5.02613 19.1042 6.1766 19.493V21.5347ZM13.9544 21.7778C11.7993 21.7778 9.96421 21.0202 8.44916 19.5052C6.93412 17.9902 6.1766 16.1551 6.1766 14C6.1766 11.8449 6.93412 10.0098 8.44916 8.49478C9.96421 6.97974 11.7993 6.22222 13.9544 6.22222C15.0238 6.22222 16.0284 6.42476 16.9683 6.82985C17.9081 7.23495 18.7345 7.79397 19.4474 8.50694L18.0863 9.86805C17.5516 9.33333 16.9318 8.91608 16.2269 8.61631C15.5221 8.31654 14.7646 8.16666 13.9544 8.16666C12.334 8.16666 10.9567 8.73379 9.82243 9.86805C8.68817 11.0023 8.12104 12.3796 8.12104 14C8.12104 15.6204 8.68817 16.9977 9.82243 18.1319C10.9567 19.2662 12.334 19.8333 13.9544 19.8333C14.7646 19.8333 15.5221 19.6834 16.2269 19.3837C16.9318 19.0839 17.5516 18.6667 18.0863 18.1319L19.4474 19.493C18.7345 20.206 17.9081 20.765 16.9683 21.1701C16.0284 21.5752 15.0238 21.7778 13.9544 21.7778ZM19.7877 17.8889L18.4266 16.5278L19.9822 14.9722H12.9822V13.0278H19.9822L18.4266 11.4722L19.7877 10.1111L23.6766 14L19.7877 17.8889Z" fill="#0B2A4A"/>
</svg>
