<svg width="25" height="28" viewBox="0 0 25 28" fill="none" xmlns="http://www.w3.org/2000/svg">
<path d="M6.17643 23.7222C5.36625 23.7222 4.67759 23.4387 4.11046 22.8715C3.54333 22.3044 3.25977 21.6157 3.25977 20.8056V17.8889H6.17643V4.27778L7.63477 5.73612L9.0931 4.27778L10.5514 5.73612L12.0098 4.27778L13.4681 5.73612L14.9264 4.27778L16.3848 5.73612L17.8431 4.27778L19.3014 5.73612L20.7598 4.27778V20.8056C20.7598 21.6157 20.4762 22.3044 19.9091 22.8715C19.3419 23.4387 18.6533 23.7222 17.8431 23.7222H6.17643ZM17.8431 21.7778C18.1186 21.7778 18.3495 21.6846 18.5358 21.4983C18.7221 21.3119 18.8153 21.081 18.8153 20.8056V7.19445H8.12088V17.8889H16.8709V20.8056C16.8709 21.081 16.964 21.3119 17.1504 21.4983C17.3367 21.6846 17.5676 21.7778 17.8431 21.7778ZM9.0931 11.0833V9.1389H14.9264V11.0833H9.0931ZM9.0931 14V12.0556H14.9264V14H9.0931ZM16.8709 11.0833C16.5954 11.0833 16.3645 10.9902 16.1782 10.8038C15.9918 10.6175 15.8987 10.3866 15.8987 10.1111C15.8987 9.83565 15.9918 9.60475 16.1782 9.41841C16.3645 9.23207 16.5954 9.1389 16.8709 9.1389C17.1463 9.1389 17.3772 9.23207 17.5636 9.41841C17.7499 9.60475 17.8431 9.83565 17.8431 10.1111C17.8431 10.3866 17.7499 10.6175 17.5636 10.8038C17.3772 10.9902 17.1463 11.0833 16.8709 11.0833ZM16.8709 14C16.5954 14 16.3645 13.9068 16.1782 13.7205C15.9918 13.5342 15.8987 13.3032 15.8987 13.0278C15.8987 12.7523 15.9918 12.5214 16.1782 12.3351C16.3645 12.1487 16.5954 12.0556 16.8709 12.0556C17.1463 12.0556 17.3772 12.1487 17.5636 12.3351C17.7499 12.5214 17.8431 12.7523 17.8431 13.0278C17.8431 13.3032 17.7499 13.5342 17.5636 13.7205C17.3772 13.9068 17.1463 14 16.8709 14ZM6.17643 21.7778H14.9264V19.8333H5.20421V20.8056C5.20421 21.081 5.29738 21.3119 5.48372 21.4983C5.67007 21.6846 5.90097 21.7778 6.17643 21.7778ZM5.20421 21.7778C5.20421 21.7778 5.20421 21.6846 5.20421 21.4983C5.20421 21.3119 5.20421 21.081 5.20421 20.8056V19.8333V21.7778Z" fill="#0B2A4A"/>
</svg>
