<svg width="30" height="30" viewBox="0 0 30 30" fill="none" xmlns="http://www.w3.org/2000/svg">
<path d="M14.25 3.28593C14.6766 2.90156 15.3234 2.90156 15.75 3.28593L26.625 13.0359C27.0891 13.4484 27.1266 14.1609 26.7094 14.625C26.2922 15.0891 25.5844 15.1266 25.1203 14.7094L24.7453 14.3719V23.9953C24.7453 25.65 23.4 26.9953 21.7453 26.9953H8.24531C6.59062 26.9953 5.24531 25.65 5.24531 23.9953V14.3719L4.87031 14.7094C4.40625 15.1219 3.69844 15.0844 3.28125 14.625C2.86406 14.1656 2.90625 13.4531 3.36562 13.0359L14.25 3.28593ZM15 5.63437L7.5 12.3609V24C7.5 24.4125 7.8375 24.75 8.25 24.75H10.5V19.875C10.5 18.0094 12.0094 16.5 13.875 16.5H16.125C17.9906 16.5 19.5 18.0094 19.5 19.875V24.75H21.75C22.1625 24.75 22.5 24.4125 22.5 24V12.3609L15 5.63906V5.63437ZM12.75 24.75H17.25V19.875C17.25 19.2516 16.7484 18.75 16.125 18.75H13.875C13.2516 18.75 12.75 19.2516 12.75 19.875V24.75Z" fill="#137FEC"/>
</svg>
