<svg width="25" height="28" viewBox="0 0 25 28" fill="none" xmlns="http://www.w3.org/2000/svg">
<path d="M4.23242 20.8056V18.8611H6.17687V12.0556C6.17687 10.7106 6.58196 9.51562 7.39214 8.47048C8.20233 7.42535 9.25557 6.74074 10.5519 6.41667V5.73611C10.5519 5.33102 10.6936 4.98669 10.9772 4.70312C11.2608 4.41956 11.6051 4.27778 12.0102 4.27778C12.4153 4.27778 12.7596 4.41956 13.0432 4.70312C13.3268 4.98669 13.4685 5.33102 13.4685 5.73611V6.41667C14.7648 6.74074 15.8181 7.42535 16.6283 8.47048C17.4384 9.51562 17.8435 10.7106 17.8435 12.0556V18.8611H19.788V20.8056H4.23242ZM12.0102 23.7222C11.4755 23.7222 11.0177 23.5318 10.6369 23.151C10.2561 22.7703 10.0658 22.3125 10.0658 21.7778H13.9546C13.9546 22.3125 13.7643 22.7703 13.3835 23.151C13.0027 23.5318 12.5449 23.7222 12.0102 23.7222ZM8.12131 18.8611H15.8991V12.0556C15.8991 10.9861 15.5183 10.0706 14.7567 9.30903C13.9952 8.54745 13.0796 8.16667 12.0102 8.16667C10.9408 8.16667 10.0252 8.54745 9.26367 9.30903C8.5021 10.0706 8.12131 10.9861 8.12131 12.0556V18.8611Z" fill="#334155"/>
</svg>
