<svg width="25" height="28" viewBox="0 0 25 28" fill="none" xmlns="http://www.w3.org/2000/svg">
<path d="M16.871 24.6945C17.4057 24.6945 17.8635 24.5041 18.2442 24.1233C18.625 23.7425 18.8154 23.2847 18.8154 22.75V5.25001C18.8154 4.71529 18.625 4.25754 18.2442 3.87675C17.8635 3.49596 17.4057 3.30557 16.871 3.30557H7.14876C6.61404 3.30557 6.15629 3.49596 5.7755 3.87675C5.39471 4.25754 5.20432 4.71529 5.20432 5.25001V8.2639C4.91265 8.37733 4.6777 8.55557 4.49946 8.79862C4.32122 9.04168 4.2321 9.31714 4.2321 9.62501V11.5695C4.2321 11.8773 4.32122 12.1528 4.49946 12.3958C4.6777 12.6389 4.91265 12.8171 5.20432 12.9306V22.75C5.20432 23.2847 5.39471 23.7425 5.7755 24.1233C6.15629 24.5041 6.61404 24.6945 7.14876 24.6945H16.871ZM16.871 22.75H7.14876V5.25001H16.871V22.75ZM12.0099 8.16668C11.7344 8.16668 11.5035 8.07351 11.3172 7.88717C11.1308 7.70082 11.0377 7.46992 11.0377 7.19446C11.0377 6.91899 11.1308 6.68809 11.3172 6.50175C11.5035 6.31541 11.7344 6.22223 12.0099 6.22223C12.2853 6.22223 12.5162 6.31541 12.7026 6.50175C12.8889 6.68809 12.9821 6.91899 12.9821 7.19446C12.9821 7.46992 12.8889 7.70082 12.7026 7.88717C12.5162 8.07351 12.2853 8.16668 12.0099 8.16668Z" fill="#0B2A4A"/>
</svg>
