<svg width="18" height="18" viewBox="0 0 18 18" fill="none" xmlns="http://www.w3.org/2000/svg">
<g clip-path="url(#clip0_96_322)">
<path d="M17.8357 0.164235C17.9136 0.242234 17.9668 0.341394 17.9888 0.449397C18.0108 0.557401 18.0006 0.669488 17.9595 0.771735L11.4131 17.1371C11.3554 17.2812 11.2591 17.4066 11.1347 17.4995C11.0103 17.5925 10.8627 17.6492 10.7081 17.6637C10.5536 17.6781 10.398 17.6496 10.2586 17.5813C10.1192 17.513 10.0013 17.4076 9.91795 17.2766L6.3427 11.6572L0.723329 8.08199C0.592061 7.99872 0.486349 7.8808 0.417857 7.74125C0.349365 7.60171 0.320756 7.44595 0.335187 7.29117C0.349617 7.13639 0.406526 6.98861 0.499635 6.86412C0.592743 6.73964 0.718431 6.6433 0.862829 6.58574L17.2282 0.0416104C17.3305 0.000449175 17.4425 -0.00976551 17.5505 0.0122352C17.6585 0.0342359 17.7577 0.0874824 17.8357 0.16536V0.164235ZM7.46545 11.3287L10.5716 16.209L15.8962 2.89799L7.46545 11.3287ZM15.1008 2.10261L1.78983 7.42724L6.6712 10.5322L15.1008 2.10261Z" fill="#EC1616"/>
</g>
<defs>
<clipPath id="clip0_96_322">
<rect width="18" height="18" fill="white"/>
</clipPath>
</defs>
</svg>
