<svg width="24" height="24" viewBox="0 0 24 24" fill="none" xmlns="http://www.w3.org/2000/svg">
<g clip-path="url(#clip0_2_126)">
<path fill-rule="evenodd" clip-rule="evenodd" d="M1.5 17.2498C1.5 17.4487 1.57902 17.6394 1.71967 17.7801C1.86032 17.9207 2.05109 17.9998 2.25 17.9998H19.9395L15.219 22.7188C15.0782 22.8596 14.9991 23.0506 14.9991 23.2498C14.9991 23.4489 15.0782 23.6399 15.219 23.7808C15.3598 23.9216 15.5508 24.0007 15.75 24.0007C15.9492 24.0007 16.1402 23.9216 16.281 23.7808L22.281 17.7808C22.3508 17.7111 22.4063 17.6283 22.4441 17.5372C22.4819 17.4461 22.5013 17.3484 22.5013 17.2498C22.5013 17.1511 22.4819 17.0534 22.4441 16.9623C22.4063 16.8712 22.3508 16.7884 22.281 16.7188L16.281 10.7188C16.1402 10.5779 15.9492 10.4988 15.75 10.4988C15.5508 10.4988 15.3598 10.5779 15.219 10.7188C15.0782 10.8596 14.9991 11.0506 14.9991 11.2498C14.9991 11.4489 15.0782 11.6399 15.219 11.7808L19.9395 16.4998H2.25C2.05109 16.4998 1.86032 16.5788 1.71967 16.7194C1.57902 16.8601 1.5 17.0508 1.5 17.2498ZM22.5 6.74976C22.5 6.94867 22.421 7.13944 22.2803 7.28009C22.1397 7.42074 21.9489 7.49976 21.75 7.49976H4.0605L8.781 12.2188C8.85073 12.2885 8.90605 12.3713 8.94379 12.4624C8.98153 12.5535 9.00095 12.6511 9.00095 12.7498C9.00095 12.8484 8.98153 12.946 8.94379 13.0371C8.90605 13.1282 8.85073 13.211 8.781 13.2808C8.71127 13.3505 8.62849 13.4058 8.53738 13.4435C8.44627 13.4813 8.34862 13.5007 8.25 13.5007C8.15139 13.5007 8.05374 13.4813 7.96263 13.4435C7.87152 13.4058 7.78873 13.3505 7.719 13.2808L1.719 7.28076C1.64916 7.21109 1.59374 7.12833 1.55593 7.03721C1.51812 6.94609 1.49866 6.84841 1.49866 6.74976C1.49866 6.65111 1.51812 6.55342 1.55593 6.46231C1.59374 6.37119 1.64916 6.28843 1.719 6.21876L7.719 0.218757C7.85983 0.0779273 8.05084 -0.00119019 8.25 -0.00119019C8.44917 -0.00119019 8.64017 0.0779273 8.781 0.218757C8.92183 0.359587 9.00095 0.550594 9.00095 0.749757C9.00095 0.948921 8.92183 1.13993 8.781 1.28076L4.0605 5.99976H21.75C21.9489 5.99976 22.1397 6.07878 22.2803 6.21943C22.421 6.36008 22.5 6.55085 22.5 6.74976Z" fill="#454E5D"/>
</g>
<defs>
<clipPath id="clip0_2_126">
<rect width="24" height="24" fill="white"/>
</clipPath>
</defs>
</svg>
