<svg width="33" height="41" viewBox="0 0 33 41" fill="none" xmlns="http://www.w3.org/2000/svg">
<g opacity="0.58" clip-path="url(#clip0_131_63)">
<path d="M0 10.1082C0 8.76775 0.431332 7.48222 1.19911 6.53439C1.96688 5.58656 3.00821 5.05408 4.09401 5.05408H28.6581C29.7439 5.05408 30.7852 5.58656 31.553 6.53439C32.3208 7.48222 32.7521 8.76775 32.7521 10.1082V30.3246C32.7521 31.665 32.3208 32.9506 31.553 33.8984C30.7852 34.8462 29.7439 35.3787 28.6581 35.3787H4.09401C3.00821 35.3787 1.96688 34.8462 1.19911 33.8984C0.431332 32.9506 0 31.665 0 30.3246V10.1082ZM4.09401 7.58113C3.55111 7.58113 3.03045 7.84737 2.64656 8.32129C2.26267 8.7952 2.04701 9.43797 2.04701 10.1082V12.6352H30.7051V10.1082C30.7051 9.43797 30.4894 8.7952 30.1055 8.32129C29.7216 7.84737 29.201 7.58113 28.6581 7.58113H4.09401ZM30.7051 17.6893H2.04701V30.3246C2.04701 30.9948 2.26267 31.6376 2.64656 32.1115C3.03045 32.5854 3.55111 32.8516 4.09401 32.8516H28.6581C29.201 32.8516 29.7216 32.5854 30.1055 32.1115C30.4894 31.6376 30.7051 30.9948 30.7051 30.3246V17.6893Z" fill="#297E8D"/>
<path d="M4.09424 25.2705C4.09424 24.6002 4.3099 23.9575 4.69379 23.4836C5.07768 23.0097 5.59834 22.7434 6.14124 22.7434H8.18825C8.73115 22.7434 9.25181 23.0097 9.6357 23.4836C10.0196 23.9575 10.2353 24.6002 10.2353 25.2705V27.7975C10.2353 28.4677 10.0196 29.1105 9.6357 29.5844C9.25181 30.0583 8.73115 30.3246 8.18825 30.3246H6.14124C5.59834 30.3246 5.07768 30.0583 4.69379 29.5844C4.3099 29.1105 4.09424 28.4677 4.09424 27.7975V25.2705Z" fill="#297E8D"/>
</g>
<defs>
<clipPath id="clip0_131_63">
<rect width="32.7521" height="40.4328" fill="white"/>
</clipPath>
</defs>
</svg>
